<svg width="458" height="458" viewBox="0 0 458 458" fill="none" xmlns="http://www.w3.org/2000/svg">
<path d="M455.013 244.99C453.065 250.833 450.901 256.46 448.521 261.871C440.513 277.237 427.095 290.222 409.565 297.581C370.825 314.029 326.458 296.931 310.01 259.707C307.846 254.08 306.115 248.236 305.033 242.176C304.6 239.796 304.383 237.632 303.951 235.251C303.951 233.736 303.734 232.437 303.734 230.923C303.734 231.139 303.518 231.355 303.518 231.355C301.786 205.168 316.936 173.787 333.6 154.526C324.944 156.473 264.778 159.936 264.778 159.936C264.778 159.936 203.747 236.117 230.583 330.477C238.158 357.097 255.905 391.724 271.92 403.195C273.219 403.195 274.734 403.195 276.032 403.195C276.249 403.195 276.465 403.195 276.465 403.195C277.114 403.195 277.764 403.195 278.413 403.195C278.629 403.195 278.846 403.195 279.062 403.195C279.711 403.195 280.577 403.195 281.226 403.195C281.443 403.195 281.443 403.195 281.659 403.195C283.39 403.195 284.905 403.195 286.637 402.978C286.853 402.978 287.07 402.978 287.286 402.978C287.935 402.978 288.585 402.978 289.234 402.762C289.45 402.762 289.667 402.762 289.883 402.762C290.532 402.762 291.182 402.762 291.831 402.545C292.047 402.545 292.047 402.545 292.264 402.545C293.995 402.329 295.51 402.329 297.241 402.112C297.458 402.112 297.674 402.112 297.891 402.112C298.54 402.112 299.189 401.896 299.839 401.896C300.055 401.896 300.271 401.896 300.488 401.896C301.137 401.896 301.786 401.68 302.436 401.68C302.652 401.68 302.868 401.68 302.868 401.68C303.734 401.463 304.6 401.463 305.466 401.247C306.331 401.03 306.98 401.03 307.846 400.814C308.063 400.814 308.279 400.814 308.495 400.598C309.145 400.598 309.794 400.381 310.227 400.381C310.443 400.381 310.66 400.381 310.876 400.165C311.525 399.948 312.175 399.948 312.824 399.732C313.04 399.732 313.257 399.732 313.473 399.515C314.339 399.299 315.205 399.083 315.854 399.083C316.719 398.866 317.369 398.65 318.234 398.65C318.451 398.65 318.667 398.65 318.884 398.433C319.533 398.217 319.966 398.217 320.615 398C320.832 398 321.048 397.784 321.481 397.784C322.13 397.568 322.779 397.568 323.212 397.351C323.429 397.351 323.645 397.135 323.861 397.135C324.727 396.918 325.593 396.702 326.242 396.485C327.108 396.269 327.757 396.053 328.623 395.836C328.839 395.836 329.056 395.62 329.272 395.62C329.921 395.403 330.354 395.187 331.003 395.187C331.22 395.187 331.653 394.971 331.869 394.971C332.518 394.754 332.951 394.538 333.6 394.321C333.817 394.321 334.033 394.105 334.25 394.105C335.115 393.888 335.765 393.456 336.63 393.239C337.496 393.023 338.145 392.59 339.011 392.373C339.227 392.373 339.444 392.157 339.66 392.157C340.309 391.941 340.742 391.724 341.392 391.508C341.608 391.508 342.041 391.291 342.257 391.291C342.907 391.075 343.339 390.858 343.989 390.642C344.205 390.642 344.422 390.426 344.638 390.426C345.504 390.209 346.153 389.776 347.019 389.56C348.101 389.127 349.183 388.694 350.265 388.261C350.698 388.045 350.914 388.045 351.347 387.829C351.996 387.612 352.862 387.179 353.511 386.746C353.944 386.53 354.377 386.314 354.593 386.097C355.243 385.881 355.892 385.448 356.541 385.232C356.974 385.015 357.407 384.799 357.623 384.582C358.273 384.149 358.922 383.933 359.571 383.5C360.004 383.284 360.22 383.067 360.653 382.851C361.302 382.418 362.168 381.985 362.817 381.769C363.034 381.552 363.467 381.552 363.683 381.336C364.765 380.687 365.631 380.254 366.713 379.605C366.929 379.605 366.929 379.388 367.146 379.388C368.012 378.955 368.877 378.522 369.526 377.873C369.743 377.657 370.176 377.44 370.392 377.224C371.041 376.791 371.691 376.358 372.34 375.925C372.773 375.709 372.989 375.493 373.422 375.276C374.071 374.843 374.721 374.41 375.153 374.194C375.586 373.978 375.803 373.761 376.236 373.545C376.885 373.112 377.534 372.679 378.183 372.246C378.4 372.03 378.833 371.813 379.049 371.597C379.915 371.164 380.564 370.515 381.43 370.082C381.646 370.082 381.646 369.866 381.863 369.866C382.728 369.216 383.594 368.567 384.676 367.918C384.892 367.701 385.109 367.701 385.109 367.485C385.758 367.052 386.624 366.403 387.273 365.97C387.49 365.754 387.922 365.537 388.139 365.321C388.788 364.888 389.437 364.455 389.87 363.806C390.087 363.589 390.519 363.373 390.736 363.156C391.385 362.724 391.818 362.291 392.467 361.642C392.684 361.425 393.116 361.209 393.333 360.992C393.982 360.559 394.631 359.91 395.281 359.477C395.497 359.261 395.714 359.044 395.93 358.828C397.661 357.313 399.176 355.798 400.908 354.283C401.124 354.067 401.341 354.067 401.341 353.85C401.99 353.201 402.639 352.552 403.288 352.119C403.505 351.903 403.721 351.686 403.938 351.47C404.587 350.82 405.02 350.388 405.669 349.738C405.885 349.522 406.102 349.305 406.318 349.089C406.968 348.44 407.4 348.007 408.05 347.358C408.266 347.141 408.482 346.925 408.699 346.708C409.348 346.059 409.997 345.41 410.43 344.761C410.647 344.544 410.647 344.544 410.863 344.328C412.378 342.596 413.677 341.081 415.192 339.35C415.408 339.134 415.408 338.917 415.624 338.701C416.057 338.051 416.707 337.402 417.139 336.753C417.356 336.537 417.572 336.32 417.789 336.104C418.221 335.454 418.871 334.805 419.304 334.156C419.52 333.939 419.736 333.723 419.953 333.507C420.386 332.857 421.035 332.208 421.468 331.559C421.684 331.342 421.684 331.126 421.901 330.91C422.55 330.044 422.983 329.395 423.632 328.529C423.632 328.529 423.632 328.312 423.848 328.312C424.498 327.447 425.147 326.581 425.796 325.499C425.796 325.499 425.796 325.499 425.796 325.283C426.446 324.417 426.878 323.551 427.528 322.686C427.744 322.469 427.744 322.253 427.96 322.036C428.393 321.387 428.826 320.738 429.259 320.088C429.475 319.872 429.692 319.656 429.692 319.223C430.125 318.574 430.558 317.924 430.99 317.275C430.99 317.059 431.207 317.059 431.207 316.842C444.625 294.767 452.633 270.311 455.013 244.99Z" fill="#3D8FCD"/>
<path opacity="0.2" d="M455.013 244.99C453.065 250.833 450.901 256.46 448.521 261.871C440.513 277.237 427.095 290.222 409.565 297.581C370.825 314.029 326.458 296.931 310.01 259.707C307.846 254.08 306.115 248.236 305.033 242.176C304.6 239.796 304.383 237.632 303.951 235.251C303.951 233.736 303.734 232.437 303.734 230.923C303.734 231.139 303.518 231.355 303.518 231.355C301.786 205.168 316.936 173.787 333.6 154.526C324.944 156.473 264.778 159.936 264.778 159.936C264.778 159.936 203.747 236.117 230.583 330.477C238.158 357.097 255.905 391.724 271.92 403.195C273.219 403.195 274.734 403.195 276.032 403.195C276.249 403.195 276.465 403.195 276.465 403.195C277.114 403.195 277.764 403.195 278.413 403.195C278.629 403.195 278.846 403.195 279.062 403.195C279.711 403.195 280.577 403.195 281.226 403.195C281.443 403.195 281.443 403.195 281.659 403.195C283.39 403.195 284.905 403.195 286.637 402.978C286.853 402.978 287.07 402.978 287.286 402.978C287.935 402.978 288.585 402.978 289.234 402.762C289.45 402.762 289.667 402.762 289.883 402.762C290.532 402.762 291.182 402.762 291.831 402.545C292.047 402.545 292.047 402.545 292.264 402.545C293.995 402.329 295.51 402.329 297.241 402.112C297.458 402.112 297.674 402.112 297.891 402.112C298.54 402.112 299.189 401.896 299.839 401.896C300.055 401.896 300.271 401.896 300.488 401.896C301.137 401.896 301.786 401.68 302.436 401.68C302.652 401.68 302.868 401.68 302.868 401.68C303.734 401.463 304.6 401.463 305.466 401.247C306.331 401.03 306.98 401.03 307.846 400.814C308.063 400.814 308.279 400.814 308.495 400.598C309.145 400.598 309.794 400.381 310.227 400.381C310.443 400.381 310.66 400.381 310.876 400.165C311.525 399.948 312.175 399.948 312.824 399.732C313.04 399.732 313.257 399.732 313.473 399.515C314.339 399.299 315.205 399.083 315.854 399.083C316.719 398.866 317.369 398.65 318.234 398.65C318.451 398.65 318.667 398.65 318.884 398.433C319.533 398.217 319.966 398.217 320.615 398C320.832 398 321.048 397.784 321.481 397.784C322.13 397.568 322.779 397.568 323.212 397.351C323.429 397.351 323.645 397.135 323.861 397.135C324.727 396.918 325.593 396.702 326.242 396.485C327.108 396.269 327.757 396.053 328.623 395.836C328.839 395.836 329.056 395.62 329.272 395.62C329.921 395.403 330.354 395.187 331.003 395.187C331.22 395.187 331.653 394.971 331.869 394.971C332.518 394.754 332.951 394.538 333.6 394.321C333.817 394.321 334.033 394.105 334.25 394.105C335.115 393.888 335.765 393.456 336.63 393.239C337.496 393.023 338.145 392.59 339.011 392.373C339.227 392.373 339.444 392.157 339.66 392.157C340.309 391.941 340.742 391.724 341.392 391.508C341.608 391.508 342.041 391.291 342.257 391.291C342.907 391.075 343.339 390.858 343.989 390.642C344.205 390.642 344.422 390.426 344.638 390.426C345.504 390.209 346.153 389.776 347.019 389.56C348.101 389.127 349.183 388.694 350.265 388.261C350.698 388.045 350.914 388.045 351.347 387.829C351.996 387.612 352.862 387.179 353.511 386.746C353.944 386.53 354.377 386.314 354.593 386.097C355.243 385.881 355.892 385.448 356.541 385.232C356.974 385.015 357.407 384.799 357.623 384.582C358.273 384.149 358.922 383.933 359.571 383.5C360.004 383.284 360.22 383.067 360.653 382.851C361.302 382.418 362.168 381.985 362.817 381.769C363.034 381.552 363.467 381.552 363.683 381.336C364.765 380.687 365.631 380.254 366.713 379.605C366.929 379.605 366.929 379.388 367.146 379.388C368.012 378.955 368.877 378.522 369.526 377.873C369.743 377.657 370.176 377.44 370.392 377.224C371.041 376.791 371.691 376.358 372.34 375.925C372.773 375.709 372.989 375.493 373.422 375.276C374.071 374.843 374.721 374.41 375.153 374.194C375.586 373.978 375.803 373.761 376.236 373.545C376.885 373.112 377.534 372.679 378.183 372.246C378.4 372.03 378.833 371.813 379.049 371.597C379.915 371.164 380.564 370.515 381.43 370.082C381.646 370.082 381.646 369.866 381.863 369.866C382.728 369.216 383.594 368.567 384.676 367.918C384.892 367.701 385.109 367.701 385.109 367.485C385.758 367.052 386.624 366.403 387.273 365.97C387.49 365.754 387.922 365.537 388.139 365.321C388.788 364.888 389.437 364.455 389.87 363.806C390.087 363.589 390.519 363.373 390.736 363.156C391.385 362.724 391.818 362.291 392.467 361.642C392.684 361.425 393.116 361.209 393.333 360.992C393.982 360.559 394.631 359.91 395.281 359.477C395.497 359.261 395.714 359.044 395.93 358.828C397.661 357.313 399.176 355.798 400.908 354.283C401.124 354.067 401.341 354.067 401.341 353.85C401.99 353.201 402.639 352.552 403.288 352.119C403.505 351.903 403.721 351.686 403.938 351.47C404.587 350.82 405.02 350.388 405.669 349.738C405.885 349.522 406.102 349.305 406.318 349.089C406.968 348.44 407.4 348.007 408.05 347.358C408.266 347.141 408.482 346.925 408.699 346.708C409.348 346.059 409.997 345.41 410.43 344.761C410.647 344.544 410.647 344.544 410.863 344.328C412.378 342.596 413.677 341.081 415.192 339.35C415.408 339.134 415.408 338.917 415.624 338.701C416.057 338.051 416.707 337.402 417.139 336.753C417.356 336.537 417.572 336.32 417.789 336.104C418.221 335.454 418.871 334.805 419.304 334.156C419.52 333.939 419.736 333.723 419.953 333.507C420.386 332.857 421.035 332.208 421.468 331.559C421.684 331.342 421.684 331.126 421.901 330.91C422.55 330.044 422.983 329.395 423.632 328.529C423.632 328.529 423.632 328.312 423.848 328.312C424.498 327.447 425.147 326.581 425.796 325.499C425.796 325.499 425.796 325.499 425.796 325.283C426.446 324.417 426.878 323.551 427.528 322.686C427.744 322.469 427.744 322.253 427.96 322.036C428.393 321.387 428.826 320.738 429.259 320.088C429.475 319.872 429.692 319.656 429.692 319.223C430.125 318.574 430.558 317.924 430.99 317.275C430.99 317.059 431.207 317.059 431.207 316.842C444.625 294.767 452.633 270.311 455.013 244.99Z" fill="url(#paint0_linear_504_23)"/>
<path opacity="0.4" d="M448.52 261.871C440.513 277.237 427.095 290.222 409.564 297.58C370.825 314.029 326.458 296.931 310.01 259.707C307.846 254.08 306.115 248.236 305.032 242.176C304.6 239.796 304.383 237.632 303.95 235.251C303.95 233.736 303.734 232.437 303.734 230.922C303.734 231.139 303.517 231.355 303.517 231.355C301.786 206.9 314.988 177.683 330.354 158.205C302.219 174.22 283.174 204.519 283.174 239.146C283.174 290.439 324.727 331.992 376.019 331.992C397.878 331.992 417.788 324.417 433.587 311.864C445.058 291.088 452.416 268.147 454.58 244.773C453.065 250.833 450.901 256.46 448.52 261.871Z" fill="url(#paint1_linear_504_23)"/>
<path d="M430.125 333.94C429.259 335.022 428.61 335.454 428.177 335.887C409.997 347.574 388.572 354.283 365.415 354.283C306.331 354.283 257.636 310.133 250.278 253.214C249.629 248.236 249.412 243.259 249.412 238.064C249.412 207.333 261.315 179.414 280.793 158.638C265.86 159.72 252.009 161.235 247.032 162.317C222.792 168.16 201.367 180.713 182.971 198.026C149.425 229.408 126.484 275.289 115.663 322.686C107.439 359.044 115.014 412.284 128.649 435.009C130.38 435.874 131.895 436.524 133.626 437.389C133.843 437.389 134.059 437.606 134.276 437.606C135.141 438.039 135.791 438.255 136.656 438.688C136.873 438.688 137.089 438.904 137.306 438.904C138.171 439.337 139.037 439.554 139.903 439.986C140.119 439.986 140.119 440.203 140.335 440.203C142.283 441.068 144.447 441.934 146.395 442.583C146.612 442.583 146.828 442.8 147.045 442.8C147.91 443.016 148.56 443.449 149.425 443.666C149.642 443.666 149.858 443.882 150.291 443.882C151.157 444.098 152.022 444.531 152.888 444.748C153.104 444.748 153.321 444.964 153.321 444.964C155.485 445.613 157.433 446.263 159.597 446.912C159.813 446.912 160.03 447.128 160.463 447.128C161.328 447.345 161.978 447.561 162.843 447.778C163.06 447.778 163.493 447.994 163.709 447.994C164.575 448.21 165.44 448.427 166.306 448.643C166.523 448.643 166.739 448.86 166.955 448.86C168.037 449.076 169.12 449.509 170.202 449.725C171.284 449.942 172.366 450.158 173.232 450.591C173.448 450.591 173.881 450.807 174.097 450.807C174.963 451.024 175.612 451.24 176.478 451.457C176.694 451.457 177.127 451.673 177.344 451.673C178.209 451.89 179.075 452.106 179.724 452.106C179.941 452.106 180.157 452.322 180.59 452.322C181.672 452.539 182.754 452.755 183.836 452.972C184.918 453.188 186.001 453.405 186.866 453.621C187.083 453.621 187.515 453.621 187.732 453.837C188.598 454.054 189.247 454.054 190.113 454.27C190.545 454.27 190.762 454.487 191.195 454.487C192.06 454.703 192.71 454.703 193.575 454.919C193.792 454.919 194.225 454.92 194.441 455.136C195.523 455.352 196.605 455.352 197.687 455.569C197.687 455.569 197.687 455.569 197.904 455.569C198.986 455.785 200.068 455.785 201.15 456.002C201.583 456.002 201.799 456.002 202.232 456.218C203.098 456.218 203.747 456.434 204.613 456.434C205.046 456.434 205.262 456.434 205.695 456.651C206.561 456.651 207.21 456.867 208.076 456.867C208.508 456.867 208.725 456.867 209.158 456.867C210.24 456.867 211.322 457.084 212.404 457.084C212.404 457.084 212.404 457.084 212.62 457.084C213.703 457.084 214.785 457.3 215.867 457.3C216.3 457.3 216.516 457.3 216.949 457.3C217.815 457.3 218.464 457.3 219.33 457.3C219.762 457.3 220.195 457.3 220.412 457.3C221.277 457.3 221.927 457.3 222.792 457.3C223.225 457.3 223.442 457.3 223.874 457.3C224.957 457.3 226.039 457.3 227.337 457.3C228.852 457.3 230.367 457.3 231.882 457.3C232.315 457.3 232.748 457.3 233.397 457.3C234.479 457.3 235.345 457.3 236.427 457.3C237.076 457.3 237.509 457.3 238.158 457.3C239.024 457.3 240.106 457.3 240.972 457.084C241.621 457.084 242.054 457.084 242.703 457.084C243.569 457.084 244.651 456.867 245.517 456.867C246.166 456.867 246.599 456.867 247.032 456.651C248.114 456.651 249.196 456.434 250.278 456.434C250.711 456.434 251.144 456.434 251.576 456.218C253.091 456.002 254.606 455.785 255.905 455.785C256.121 455.785 256.338 455.785 256.554 455.785C257.853 455.569 258.935 455.352 260.233 455.352C260.666 455.352 261.099 455.136 261.748 455.136C262.83 454.92 263.696 454.92 264.778 454.703C265.211 454.703 265.86 454.487 266.293 454.487C267.159 454.27 268.241 454.054 269.107 454.054C269.539 454.054 270.189 453.837 270.622 453.837C271.704 453.621 272.569 453.405 273.435 453.188C273.868 453.188 274.301 452.972 274.734 452.972C276.032 452.755 277.114 452.539 278.196 452.106C278.413 452.106 278.629 452.106 278.846 451.89C280.361 451.457 281.659 451.24 283.174 450.807C283.391 450.807 283.823 450.591 284.04 450.591C285.122 450.375 286.204 449.942 287.503 449.725C287.935 449.509 288.368 449.509 288.801 449.293C289.667 449.076 290.749 448.643 291.615 448.427C292.047 448.21 292.48 448.21 293.129 447.994C293.995 447.778 295.077 447.345 295.943 447.128C296.376 446.912 296.809 446.912 297.242 446.695C298.324 446.263 299.189 446.046 300.271 445.613C300.704 445.397 300.921 445.397 301.354 445.18C304.167 444.315 306.764 443.233 309.578 442.151C309.794 442.151 310.227 441.934 310.443 441.718C311.525 441.285 312.607 440.852 313.69 440.419C314.122 440.203 314.555 439.986 314.772 439.986C315.637 439.554 316.72 439.121 317.585 438.904C318.018 438.688 318.451 438.471 318.884 438.255C319.749 437.822 320.832 437.389 321.697 436.956C322.13 436.74 322.347 436.524 322.779 436.524C323.861 436.091 324.944 435.441 326.026 435.009C326.242 434.792 326.459 434.792 326.675 434.792C329.272 433.494 331.869 432.195 334.466 430.897C334.683 430.68 335.115 430.68 335.332 430.464C336.414 430.031 337.28 429.382 338.362 428.949C338.795 428.732 339.011 428.516 339.444 428.3C340.31 427.867 341.175 427.217 342.257 426.785C342.69 426.568 342.907 426.352 343.339 426.135C344.205 425.486 345.287 425.053 346.153 424.404C346.369 424.188 346.802 423.971 347.019 423.755C348.101 423.105 349.183 422.456 350.265 421.59L350.481 421.374C351.78 420.508 353.078 419.859 354.161 418.993C354.161 418.993 354.161 418.993 354.377 418.993C355.459 418.128 356.541 417.478 357.623 416.613C357.84 416.396 358.273 416.18 358.489 415.963C359.355 415.314 360.22 414.665 361.086 414.016C361.519 413.799 361.735 413.583 362.168 413.366C363.034 412.717 363.9 412.068 364.549 411.635C364.765 411.419 364.982 411.419 365.198 411.202C392.034 390.426 414.326 364.239 430.125 333.94Z" fill="#6BB9E7"/>
<path opacity="0.3" d="M430.125 333.94C429.259 335.022 428.393 335.671 428.177 335.887C409.997 347.574 388.572 354.283 365.415 354.283C306.331 354.283 257.636 310.133 250.278 253.214C249.629 248.236 249.412 243.259 249.412 238.064C249.412 207.333 261.315 179.414 280.793 158.638C265.86 159.72 252.009 161.235 247.032 162.317C222.792 168.16 201.367 180.713 182.971 198.026C149.425 229.408 126.484 275.289 115.663 322.686C107.439 359.044 115.014 412.284 128.649 435.009C130.38 435.874 131.895 436.524 133.626 437.389C133.843 437.389 134.059 437.606 134.276 437.606C135.141 438.039 135.791 438.255 136.656 438.688C136.873 438.688 137.089 438.904 137.306 438.904C138.171 439.337 139.037 439.554 139.903 439.986C140.119 439.986 140.119 440.203 140.335 440.203C142.283 441.068 144.447 441.934 146.395 442.583C146.612 442.583 146.828 442.8 147.045 442.8C147.91 443.016 148.56 443.449 149.425 443.666C149.642 443.666 149.858 443.882 150.291 443.882C151.157 444.098 152.022 444.531 152.888 444.748C153.104 444.748 153.321 444.964 153.321 444.964C155.485 445.613 157.433 446.263 159.597 446.912C159.813 446.912 160.03 447.128 160.463 447.128C161.328 447.345 161.978 447.561 162.843 447.778C163.06 447.778 163.493 447.994 163.709 447.994C164.575 448.21 165.44 448.427 166.306 448.643C166.523 448.643 166.739 448.86 166.955 448.86C168.037 449.076 169.12 449.509 170.202 449.725C171.284 449.942 172.366 450.158 173.232 450.591C173.448 450.591 173.881 450.807 174.097 450.807C174.963 451.024 175.612 451.24 176.478 451.457C176.694 451.457 177.127 451.673 177.344 451.673C178.209 451.89 179.075 452.106 179.724 452.106C179.941 452.106 180.157 452.322 180.59 452.322C181.672 452.539 182.754 452.755 183.836 452.972C184.918 453.188 186.001 453.405 186.866 453.621C187.083 453.621 187.515 453.621 187.732 453.837C188.598 454.054 189.247 454.054 190.113 454.27C190.545 454.27 190.762 454.487 191.195 454.487C192.06 454.703 192.71 454.703 193.575 454.919C193.792 454.919 194.225 454.92 194.441 455.136C195.523 455.352 196.605 455.352 197.687 455.569C197.687 455.569 197.687 455.569 197.904 455.569C198.986 455.785 200.068 455.785 201.15 456.002C201.583 456.002 201.799 456.002 202.232 456.218C203.098 456.218 203.747 456.434 204.613 456.434C205.046 456.434 205.262 456.434 205.695 456.651C206.561 456.651 207.21 456.867 208.076 456.867C208.508 456.867 208.725 456.867 209.158 456.867C210.24 456.867 211.322 457.084 212.404 457.084C212.404 457.084 212.404 457.084 212.62 457.084C213.703 457.084 214.785 457.3 215.867 457.3C216.3 457.3 216.516 457.3 216.949 457.3C217.815 457.3 218.464 457.3 219.33 457.3C219.762 457.3 220.195 457.3 220.412 457.3C221.277 457.3 221.927 457.3 222.792 457.3C223.225 457.3 223.442 457.3 223.874 457.3C224.957 457.3 226.039 457.3 227.337 457.3C228.852 457.3 230.367 457.3 231.882 457.3C232.315 457.3 232.748 457.3 233.397 457.3C234.479 457.3 235.345 457.3 236.427 457.3C237.076 457.3 237.509 457.3 238.158 457.3C239.024 457.3 240.106 457.3 240.972 457.084C241.621 457.084 242.054 457.084 242.703 457.084C243.569 457.084 244.651 456.867 245.517 456.867C246.166 456.867 246.599 456.867 247.032 456.651C248.114 456.651 249.196 456.434 250.278 456.434C250.711 456.434 251.144 456.434 251.576 456.218C253.091 456.002 254.606 455.785 255.905 455.785C256.121 455.785 256.338 455.785 256.554 455.785C257.853 455.569 258.935 455.352 260.233 455.352C260.666 455.352 261.099 455.136 261.748 455.136C262.83 454.92 263.696 454.92 264.778 454.703C265.211 454.703 265.86 454.487 266.293 454.487C267.159 454.27 268.241 454.054 269.107 454.054C269.539 454.054 270.189 453.837 270.622 453.837C271.704 453.621 272.569 453.405 273.435 453.188C273.868 453.188 274.301 452.972 274.734 452.972C276.032 452.755 277.114 452.539 278.196 452.106C278.413 452.106 278.629 452.106 278.846 451.89C280.361 451.457 281.659 451.24 283.174 450.807C283.391 450.807 283.823 450.591 284.04 450.591C285.122 450.375 286.204 449.942 287.503 449.725C287.935 449.509 288.368 449.509 288.801 449.293C289.667 449.076 290.749 448.643 291.615 448.427C292.047 448.21 292.48 448.21 293.129 447.994C293.995 447.778 295.077 447.345 295.943 447.128C296.376 446.912 296.809 446.912 297.242 446.695C298.324 446.263 299.189 446.046 300.271 445.613C300.704 445.397 300.921 445.397 301.354 445.18C304.167 444.315 306.764 443.233 309.578 442.151C309.794 442.151 310.227 441.934 310.443 441.718C311.525 441.285 312.607 440.852 313.69 440.419C314.122 440.203 314.555 439.986 314.772 439.986C315.637 439.554 316.72 439.121 317.585 438.904C318.018 438.688 318.451 438.471 318.884 438.255C319.749 437.822 320.832 437.389 321.697 436.956C322.13 436.74 322.347 436.524 322.779 436.524C323.861 436.091 324.944 435.441 326.026 435.009C326.242 434.792 326.459 434.792 326.675 434.792C329.272 433.494 331.869 432.195 334.466 430.897C334.683 430.68 335.115 430.68 335.332 430.464C336.414 430.031 337.28 429.382 338.362 428.949C338.795 428.732 339.011 428.516 339.444 428.3C340.31 427.867 341.175 427.217 342.257 426.785C342.69 426.568 342.907 426.352 343.339 426.135C344.205 425.486 345.287 425.053 346.153 424.404C346.369 424.188 346.802 423.971 347.019 423.755C348.101 423.105 349.183 422.456 350.265 421.59L350.481 421.374C351.78 420.508 353.078 419.859 354.161 418.993C354.161 418.993 354.161 418.993 354.377 418.993C355.459 418.128 356.541 417.478 357.623 416.613C357.84 416.396 358.273 416.18 358.489 415.963C359.355 415.314 360.22 414.665 361.086 414.016C361.519 413.799 361.735 413.583 362.168 413.366C363.034 412.717 363.9 412.068 364.549 411.635C364.765 411.419 364.982 411.419 365.198 411.202C392.034 390.426 414.326 364.239 430.125 333.94Z" fill="url(#paint2_linear_504_23)"/>
<path opacity="0.6" d="M428.177 335.887C409.998 347.574 388.572 354.283 365.415 354.283C306.331 354.283 257.636 310.133 250.278 253.214C249.629 248.236 249.412 243.259 249.412 238.064C249.412 207.333 261.316 179.414 280.794 158.638C277.114 158.854 273.435 159.287 269.756 159.503C230.151 186.123 204.18 231.355 204.18 282.647C204.18 358.828 261.748 421.59 335.765 429.815C336.847 429.382 337.713 428.732 338.795 428.3C339.228 428.083 339.444 427.867 339.877 427.65C340.743 427.217 341.608 426.568 342.69 426.135C343.123 425.919 343.34 425.703 343.772 425.486C344.638 424.837 345.72 424.404 346.586 423.755C346.802 423.538 347.235 423.322 347.452 423.105C348.534 422.456 349.616 421.807 350.698 420.941L350.914 420.725C352.213 419.859 353.511 419.21 354.594 418.344C354.594 418.344 354.594 418.344 354.81 418.344C355.892 417.478 356.974 416.829 358.056 415.963C358.273 415.747 358.706 415.531 358.922 415.314C359.788 414.665 360.653 414.016 361.519 413.366C361.952 413.15 362.168 412.934 362.601 412.717C363.467 412.068 364.333 411.419 364.982 410.986C365.198 410.769 365.415 410.769 365.631 410.553C392.467 390.209 414.759 363.806 430.558 333.723C429.043 335.238 428.394 335.671 428.177 335.887Z" fill="url(#paint3_linear_504_23)"/>
<path opacity="0.5" d="M137.522 391.291C137.522 302.991 174.314 223.131 233.613 166.429C214.568 173.138 197.471 184.175 182.538 198.243C149.425 229.408 126.484 275.289 115.663 322.686C107.439 359.044 115.014 412.284 128.649 435.009C130.38 435.874 131.895 436.524 133.626 437.389C133.843 437.389 134.059 437.606 134.276 437.606C135.141 438.039 135.791 438.255 136.656 438.688C136.873 438.688 137.089 438.904 137.306 438.904C138.171 439.337 139.037 439.553 139.903 439.986C140.119 439.986 140.119 440.203 140.335 440.203C140.768 440.419 140.985 440.419 141.418 440.636C138.821 424.62 137.522 408.172 137.522 391.291Z" fill="url(#paint4_linear_504_23)"/>
<path d="M414.109 157.988C434.669 163.615 445.707 173.354 446.789 181.795C459.125 166.429 462.588 137.861 444.408 116.219C417.356 83.755 332.951 85.054 332.951 85.054C332.951 85.054 308.712 92.629 280.793 119.032C240.322 147.167 205.695 180.712 205.695 180.712C236.86 154.525 388.355 151.063 414.109 157.988Z" fill="#FDBB11"/>
<path opacity="0.5" d="M436.833 129.637C448.953 143.921 452.416 161.018 450.468 176.168C459.341 160.152 460.423 135.697 444.192 116.435C417.139 83.9721 332.734 85.2701 332.734 85.2701C332.734 85.2701 324.727 87.6511 312.607 94.7931C326.891 94.5771 408.915 96.0921 436.833 129.637Z" fill="url(#paint5_linear_504_23)"/>
<path opacity="0.3" d="M414.109 157.988C434.669 163.615 445.707 173.354 446.789 181.795C459.125 166.429 462.588 137.861 444.408 116.219C417.355 83.755 332.951 85.054 332.951 85.054C332.951 85.054 308.712 92.629 280.793 119.032C241.404 145.003 207.859 179.63 207.859 179.63C239.024 153.443 388.355 151.063 414.109 157.988Z" fill="url(#paint6_linear_504_23)"/>
<path opacity="0.1" d="M419.953 150.413C384.243 139.809 270.405 140.674 217.814 156.473C210.672 164.264 210.023 179.63 210.023 179.63C229.501 154.742 388.355 151.063 414.109 157.988C434.669 163.615 445.707 173.354 446.789 181.795C448.737 179.198 446.789 158.421 419.953 150.413Z" fill="#EE4036"/>
<path d="M224.091 166.645C224.74 165.995 225.606 165.346 226.255 164.697L226.471 164.481C227.121 163.831 227.77 163.182 228.419 162.533L228.636 162.316C229.285 161.667 229.934 161.018 230.8 160.369C230.8 160.369 230.8 160.369 231.016 160.152C234.046 157.339 237.293 154.742 240.322 152.144C240.322 152.144 240.539 152.144 240.539 151.928C241.188 151.279 242.054 150.846 242.703 150.197C242.919 150.197 242.919 149.98 243.136 149.98C243.785 149.331 244.434 148.898 245.084 148.249C245.3 148.249 245.3 148.032 245.517 148.032C246.166 147.383 247.032 146.95 247.681 146.301L247.897 146.085C250.278 144.137 252.875 142.405 255.256 140.458C255.256 140.458 255.472 140.458 255.472 140.241C256.121 139.592 256.987 139.159 257.636 138.726C257.853 138.51 257.853 138.51 258.069 138.293C258.718 137.861 259.368 137.428 260.017 136.995C260.233 136.779 260.45 136.779 260.666 136.562C261.315 136.129 261.965 135.696 262.614 135.264C262.83 135.047 263.047 135.047 263.263 134.831C263.912 134.398 264.562 133.965 265.211 133.532C265.427 133.316 265.427 133.316 265.644 133.316C266.509 132.666 267.375 132.234 268.024 131.584C269.756 130.502 271.487 129.42 273.219 128.338C273.435 128.122 273.651 128.122 273.868 127.905C274.517 127.472 275.166 127.04 275.816 126.823C276.032 126.607 276.248 126.607 276.681 126.39C277.331 125.957 277.763 125.741 278.413 125.308C278.629 125.092 279.062 124.875 279.278 124.875C279.928 124.442 280.361 124.226 281.01 123.793C281.226 123.577 281.659 123.36 281.875 123.36C282.525 122.927 283.174 122.711 283.823 122.278C284.04 122.062 284.256 122.062 284.473 121.845C285.338 121.413 285.987 120.98 286.853 120.547C286.853 120.547 287.07 120.547 287.07 120.33C287.935 119.898 288.801 119.465 289.667 118.815C289.883 118.599 290.1 118.599 290.316 118.383C290.965 117.95 291.614 117.733 292.264 117.301C292.48 117.084 292.913 116.868 293.129 116.868C293.779 116.651 294.212 116.218 294.861 116.002C295.294 115.786 295.51 115.569 295.943 115.569C296.376 115.353 297.025 114.92 297.674 114.703C298.107 114.487 298.324 114.271 298.756 114.271C299.406 114.054 299.839 113.621 300.488 113.405C300.921 113.188 301.137 112.972 301.57 112.972C302.219 112.756 302.868 112.323 303.301 112.106C303.518 111.89 303.951 111.89 304.167 111.674C305.033 111.241 305.898 110.808 306.764 110.375C282.525 100.203 256.121 94.143 228.419 92.628C148.343 88.516 75.8416 124.659 30.6093 183.093C18.4897 198.675 -11.593 249.318 20.2211 325.282C20.8703 314.894 25.6316 297.58 33.8557 284.595C39.2662 276.154 45.1096 269.662 50.3038 264.9C46.6246 277.453 44.6768 290.871 44.6768 304.722C44.6768 363.372 79.954 413.582 130.38 435.658C128.432 421.59 127.35 407.306 127.35 392.589C127.134 303.64 164.358 223.347 224.091 166.645Z" fill="#98D9F3"/>
<path opacity="0.3" d="M224.091 166.645C224.74 165.995 225.606 165.346 226.255 164.697L226.471 164.481C227.121 163.831 227.77 163.182 228.419 162.533L228.636 162.316C229.285 161.667 229.934 161.018 230.8 160.369C230.8 160.369 230.8 160.369 231.016 160.152C234.046 157.339 237.293 154.742 240.322 152.144C240.322 152.144 240.539 152.144 240.539 151.928C241.188 151.279 242.054 150.846 242.703 150.197C242.919 150.197 242.919 149.98 243.136 149.98C243.785 149.331 244.434 148.898 245.084 148.249C245.3 148.249 245.3 148.032 245.517 148.032C246.166 147.383 247.032 146.95 247.681 146.301L247.897 146.085C250.278 144.137 252.875 142.405 255.256 140.458C255.256 140.458 255.472 140.458 255.472 140.241C256.121 139.592 256.987 139.159 257.636 138.726C257.853 138.51 257.853 138.51 258.069 138.293C258.718 137.861 259.368 137.428 260.017 136.995C260.233 136.779 260.45 136.779 260.666 136.562C261.315 136.129 261.965 135.696 262.614 135.264C262.83 135.047 263.047 135.047 263.263 134.831C263.912 134.398 264.562 133.965 265.211 133.532C265.427 133.316 265.427 133.316 265.644 133.316C266.509 132.666 267.375 132.234 268.024 131.584C269.756 130.502 271.487 129.42 273.219 128.338C273.435 128.122 273.651 128.122 273.868 127.905C274.517 127.472 275.166 127.04 275.816 126.823C276.032 126.607 276.248 126.607 276.681 126.39C277.331 125.957 277.763 125.741 278.413 125.308C278.629 125.092 279.062 124.875 279.278 124.875C279.928 124.442 280.361 124.226 281.01 123.793C281.226 123.577 281.659 123.36 281.875 123.36C282.525 122.927 283.174 122.711 283.823 122.278C284.04 122.062 284.256 122.062 284.473 121.845C285.338 121.413 285.987 120.98 286.853 120.547C286.853 120.547 287.07 120.547 287.07 120.33C287.935 119.898 288.801 119.465 289.667 118.815C289.883 118.599 290.1 118.599 290.316 118.383C290.965 117.95 291.614 117.733 292.264 117.301C292.48 117.084 292.913 116.868 293.129 116.868C293.779 116.651 294.212 116.218 294.861 116.002C295.294 115.786 295.51 115.569 295.943 115.569C296.376 115.353 297.025 114.92 297.674 114.703C298.107 114.487 298.324 114.271 298.756 114.271C299.406 114.054 299.839 113.621 300.488 113.405C300.921 113.188 301.137 112.972 301.57 112.972C302.219 112.756 302.868 112.323 303.301 112.106C303.518 111.89 303.951 111.89 304.167 111.674C305.033 111.241 305.898 110.808 306.764 110.375C282.525 100.203 256.121 94.143 228.419 92.628C148.343 88.516 75.8416 124.659 30.6093 183.093C18.4897 198.675 -11.593 249.318 20.2211 325.282C20.8703 314.894 25.6316 297.58 33.8557 284.595C39.2662 276.154 45.1096 269.662 50.3038 264.9C46.6246 277.453 44.6768 290.871 44.6768 304.722C44.6768 363.372 79.954 413.582 130.38 435.658C128.432 421.59 127.35 407.306 127.35 392.589C127.134 303.64 164.358 223.347 224.091 166.645Z" fill="url(#paint7_linear_504_23)"/>
<path opacity="0.2" d="M93.805 315.111C93.805 359.693 107.006 401.03 129.731 435.658C129.947 435.658 129.947 435.874 130.164 435.874C128.216 421.807 127.134 407.523 127.134 392.806C127.134 303.857 164.358 223.564 224.091 166.645C224.74 165.996 225.606 165.346 226.255 164.697L226.471 164.481C227.121 163.831 227.77 163.182 228.419 162.533L228.636 162.316C229.285 161.667 229.934 161.018 230.8 160.369C230.8 160.369 230.8 160.369 231.016 160.152C234.046 157.339 237.293 154.742 240.322 152.145C240.322 152.145 240.539 152.145 240.539 151.928C241.188 151.279 242.054 150.846 242.703 150.197C242.92 150.197 242.92 149.98 243.136 149.98C243.785 149.331 244.434 148.898 245.084 148.249C245.3 148.249 245.3 148.033 245.517 148.033C246.166 147.383 247.032 146.95 247.681 146.301L247.897 146.085C250.278 144.137 252.875 142.406 255.256 140.458C255.256 140.458 255.472 140.458 255.472 140.241C256.121 139.592 256.987 139.159 257.636 138.726C257.853 138.51 257.853 138.51 258.069 138.294C258.718 137.861 259.368 137.428 260.017 136.995C260.233 136.779 260.45 136.779 260.666 136.562C261.315 136.129 261.965 135.697 262.614 135.264C262.83 135.047 263.047 135.047 263.263 134.831C263.913 134.398 264.562 133.965 265.211 133.532C265.427 133.316 265.427 133.316 265.644 133.316C266.51 132.667 267.375 132.234 268.025 131.585C269.756 130.502 271.487 129.42 273.219 128.338C273.435 128.122 273.651 128.122 273.868 127.905C274.517 127.473 275.166 127.04 275.816 126.823C276.032 126.607 276.249 126.607 276.681 126.39C277.331 125.958 277.764 125.741 278.413 125.308C278.629 125.092 279.062 124.875 279.278 124.875C279.928 124.443 280.361 124.226 281.01 123.793C281.226 123.577 281.659 123.36 281.876 123.36C282.525 122.928 283.174 122.711 283.823 122.278C284.04 122.062 284.256 122.062 284.473 121.846C285.338 121.413 285.988 120.98 286.853 120.547C286.853 120.547 287.07 120.547 287.07 120.331C287.935 119.898 288.801 119.465 289.667 118.816C289.883 118.599 290.1 118.599 290.316 118.383C290.965 117.95 291.615 117.734 292.264 117.301C292.48 117.084 292.913 116.868 293.129 116.868C293.779 116.651 294.212 116.219 294.861 116.002C295.294 115.786 295.51 115.569 295.943 115.569C296.376 115.353 297.025 114.92 297.674 114.704C298.107 114.487 298.324 114.271 298.756 114.271C299.406 114.054 299.839 113.621 300.488 113.405C300.921 113.189 301.137 112.972 301.57 112.972C302.219 112.756 302.868 112.323 303.301 112.107C303.518 111.89 303.951 111.89 304.167 111.674C305.033 111.241 305.898 110.808 306.764 110.375C295.51 105.614 283.823 101.935 271.92 98.905C170.202 118.816 93.805 207.982 93.805 315.111Z" fill="url(#paint8_linear_504_23)"/>
<path opacity="0.5" d="M219.762 127.905C110.685 127.905 21.7359 215.124 19.3552 323.767C19.5716 324.2 19.7881 324.85 20.0045 325.282C20.6538 314.894 25.415 297.58 33.6391 284.595C39.0496 276.155 44.893 269.662 50.0872 264.901C46.408 277.453 44.4602 290.871 44.4602 304.722C44.4602 363.373 79.737 413.583 130.163 435.658C128.216 421.59 127.133 407.306 127.133 392.59C127.133 303.64 164.358 223.348 224.091 166.429C224.74 165.779 225.606 165.13 226.255 164.481L226.471 164.264C227.12 163.615 227.77 162.966 228.419 162.317L228.635 162.1C229.285 161.451 229.934 160.802 230.8 160.152C230.8 160.152 230.8 160.152 231.016 159.936C234.046 157.122 237.292 154.525 240.322 151.928C240.322 151.928 240.539 151.928 240.539 151.712C241.188 151.063 242.054 150.63 242.703 149.98C242.919 149.98 242.919 149.764 243.136 149.764C243.785 149.115 244.434 148.682 245.084 148.033C245.3 148.033 245.3 147.816 245.516 147.816C246.166 147.167 247.031 146.734 247.681 146.085L247.897 145.868C250.278 143.921 252.875 142.189 255.255 140.241C255.255 140.241 255.472 140.241 255.472 140.025C256.121 139.376 256.987 138.943 257.636 138.51C257.852 138.294 257.852 138.294 258.069 138.077C258.718 137.644 259.367 137.212 260.017 136.779C260.233 136.562 260.45 136.562 260.666 136.346C261.315 135.913 261.964 135.48 262.614 135.047C262.83 134.831 263.047 134.831 263.263 134.614C263.912 134.182 264.562 133.749 265.211 133.316C265.427 133.1 265.427 133.1 265.644 133.1L265.86 132.883C250.927 129.637 235.561 127.905 219.762 127.905Z" fill="url(#paint9_linear_504_23)"/>
<path opacity="0.3" d="M48.3558 169.891C107.872 120.98 189.247 100.853 269.106 123.144C275.166 124.875 281.01 126.823 286.853 128.771C297.025 123.577 307.413 119.248 318.234 115.353C290.749 102.151 260.449 93.9269 228.203 92.4119C148.343 88.5159 75.8414 124.659 30.6092 183.093C24.7658 190.668 14.8103 206.25 9.61621 228.758C20.0045 196.728 38.8332 177.682 48.3558 169.891Z" fill="url(#paint10_linear_504_23)"/>
<path d="M306.331 16.0152C279.062 4.3284 248.546 0 217.165 0C164.791 0 116.096 15.7988 75.6251 42.8516L90.775 45.2322C41.4304 81.808 7.45211 137.861 0.093811 202.138C0.093811 202.138 7.01931 193.698 17.4075 189.153C20.8703 187.638 24.5495 187.205 27.5794 186.989C30.1764 186.989 31.0421 185.69 31.475 185.041C76.7072 126.823 148.343 90.897 227.553 94.36C227.986 94.36 228.203 94.144 228.419 93.927C240.322 84.188 255.472 78.3448 271.92 78.3448C287.935 78.3448 302.652 83.755 314.122 93.062C314.339 93.278 314.555 93.494 315.204 93.278C397.012 81.591 343.123 31.8141 306.331 16.0152Z" fill="#BAE4F1"/>
<path opacity="0.6" d="M189.68 14.7168C148.559 14.7168 110.036 24.8886 76.2743 43.0681L90.775 45.2323C41.4304 81.808 7.45211 137.861 0.093811 202.138C0.093811 202.138 7.01931 193.698 17.4075 189.153C20.8703 187.638 24.5495 187.205 27.5794 186.989C30.1764 186.989 31.0421 185.69 31.475 185.041C76.7072 126.823 148.343 90.897 227.553 94.36C227.986 94.36 228.203 94.144 228.419 93.927C240.322 84.188 255.472 78.3449 271.92 78.3449C287.935 78.3449 302.652 83.755 314.122 93.062C314.339 93.278 314.555 93.494 315.204 93.278C335.332 90.465 347.235 85.27 353.078 78.9942C310.227 38.9561 252.875 14.7168 189.68 14.7168Z" fill="url(#paint11_linear_504_23)"/>
<path d="M230.367 59.0835C129.514 59.0835 42.2961 117.085 0.093811 201.706C0.093811 201.922 0.093811 201.922 0.093811 202.138C0.093811 202.138 7.01931 193.698 17.4075 189.153C20.8703 187.638 24.5495 187.205 27.5794 186.989C30.1764 186.989 31.0421 185.69 31.475 185.041C76.7072 126.824 148.343 90.8971 227.553 94.3601C227.986 94.3601 228.203 94.1441 228.419 93.9271C240.322 84.1881 255.472 78.345 271.92 78.345C287.935 78.345 302.652 83.7561 314.122 93.0621C314.339 93.2781 314.555 93.4941 315.204 93.2781C327.757 91.5471 337.063 88.9501 343.772 85.4871C309.577 68.3896 271.054 59.0835 230.367 59.0835Z" fill="url(#paint12_linear_504_23)"/>
<defs>
<linearGradient id="paint0_linear_504_23" x1="432.622" y1="301.142" x2="255.84" y2="270.814" gradientUnits="userSpaceOnUse">
<stop offset="0.1555" stop-color="#72C3ED" stop-opacity="0"/>
<stop offset="1" stop-color="#142E54"/>
</linearGradient>
<linearGradient id="paint1_linear_504_23" x1="285.301" y1="258.075" x2="452.143" y2="228.656" gradientUnits="userSpaceOnUse">
<stop stop-color="#FAFBFB" stop-opacity="0"/>
<stop offset="0.0850399" stop-color="#EBF3F6" stop-opacity="0.0854995"/>
<stop offset="0.5243" stop-color="#9FCDDD" stop-opacity="0.5272"/>
<stop offset="0.8384" stop-color="#70B5CE" stop-opacity="0.8429"/>
<stop offset="0.9946" stop-color="#5EACC8"/>
</linearGradient>
<linearGradient id="paint2_linear_504_23" x1="227.954" y1="307.876" x2="93.173" y2="244.919" gradientUnits="userSpaceOnUse">
<stop offset="0.00537634" stop-color="#72C3ED" stop-opacity="0"/>
<stop offset="1" stop-color="#1E3958"/>
</linearGradient>
<linearGradient id="paint3_linear_504_23" x1="289.03" y1="156.352" x2="337.237" y2="429.747" gradientUnits="userSpaceOnUse">
<stop offset="0.00537634" stop-color="#72C3ED" stop-opacity="0"/>
<stop offset="1" stop-color="#4490CD"/>
</linearGradient>
<linearGradient id="paint4_linear_504_23" x1="106.832" y1="272.416" x2="320.936" y2="355.057" gradientUnits="userSpaceOnUse">
<stop stop-color="#FAFBFB" stop-opacity="0"/>
<stop offset="0.0505652" stop-color="#EAF2F7" stop-opacity="0.0505652"/>
<stop offset="0.2241" stop-color="#B8D4EA" stop-opacity="0.2241"/>
<stop offset="0.3955" stop-color="#8EBCE0" stop-opacity="0.3955"/>
<stop offset="0.5616" stop-color="#6EA9D8" stop-opacity="0.5616"/>
<stop offset="0.7208" stop-color="#579BD2" stop-opacity="0.7208"/>
<stop offset="0.8703" stop-color="#4993CE" stop-opacity="0.8703"/>
<stop offset="1" stop-color="#4490CD"/>
</linearGradient>
<linearGradient id="paint5_linear_504_23" x1="321.513" y1="142.909" x2="452.411" y2="119.828" gradientUnits="userSpaceOnUse">
<stop stop-color="white" stop-opacity="0"/>
<stop offset="1" stop-color="white"/>
</linearGradient>
<linearGradient id="paint6_linear_504_23" x1="405.376" y1="223.154" x2="290.873" y2="108.651" gradientUnits="userSpaceOnUse">
<stop offset="0.1774" stop-color="white" stop-opacity="0"/>
<stop offset="1" stop-color="#F6921E"/>
</linearGradient>
<linearGradient id="paint7_linear_504_23" x1="150.864" y1="171.186" x2="133.236" y2="96.002" gradientUnits="userSpaceOnUse">
<stop offset="0.00537634" stop-color="#72C3ED" stop-opacity="0"/>
<stop offset="1" stop-color="#3C90CE"/>
</linearGradient>
<linearGradient id="paint8_linear_504_23" x1="190.66" y1="147.484" x2="229.181" y2="444.598" gradientUnits="userSpaceOnUse">
<stop stop-color="#72C3ED" stop-opacity="0"/>
<stop offset="0.0399803" stop-color="#6CBDE9" stop-opacity="0.0399803"/>
<stop offset="0.2022" stop-color="#5AA9DD" stop-opacity="0.2022"/>
<stop offset="0.3876" stop-color="#4E9BD4" stop-opacity="0.3876"/>
<stop offset="0.6142" stop-color="#4692CF" stop-opacity="0.6142"/>
<stop offset="1" stop-color="#4490CD"/>
</linearGradient>
<linearGradient id="paint9_linear_504_23" x1="140.1" y1="225.977" x2="62.3323" y2="384.038" gradientUnits="userSpaceOnUse">
<stop offset="0.0281483" stop-color="#72C3ED" stop-opacity="0"/>
<stop offset="1" stop-color="#4490CD"/>
</linearGradient>
<linearGradient id="paint10_linear_504_23" x1="212.47" y1="220.929" x2="101.263" y2="109.722" gradientUnits="userSpaceOnUse">
<stop stop-color="#FAFBFB" stop-opacity="0"/>
<stop offset="1" stop-color="#4490CD"/>
</linearGradient>
<linearGradient id="paint11_linear_504_23" x1="353.261" y1="108.372" x2="0.093811" y2="108.372" gradientUnits="userSpaceOnUse">
<stop stop-color="#BAE4F3" stop-opacity="0"/>
<stop offset="0.1874" stop-color="#ACDEF2" stop-opacity="0.1874"/>
<stop offset="1" stop-color="#72C3ED"/>
</linearGradient>
<linearGradient id="paint12_linear_504_23" x1="343.831" y1="130.547" x2="0.093811" y2="130.547" gradientUnits="userSpaceOnUse">
<stop offset="0.0107527" stop-color="#BAE4F3" stop-opacity="0"/>
<stop offset="1" stop-color="#72C3ED"/>
</linearGradient>
</defs>
</svg>
